# xmcd
# 
# Track frame offsets:
#     150
#     13861
#     25157
#     35926
#     52575
#     64844
#     79899
#     91599
#     107099
#     119769
#     134190
#     148679
# 
# Disc length: 2166
# 
# Revision: 2
# Processed by: cddbd v1.5.2PL0 Copyright (c) Steve Scherf et al.
# Submitted via: fre:ac v1.0.17
# 
DISCID=aa08740c
DTITLE=Laura Kamhuber - Wie guat, dass i a Madl bin (Tyrolis, 2014)
DYEAR=2014
DGENRE=Volksmusik
TTITLE0=Wie guat, daﬂ i a Madl bin
TTITLE1=Wer Ordnung h‰lt (...ist nur zu faul zum suchen)
TTITLE2=Wann wird der Summa kumma?
TTITLE3=Nix geg'n die guate alte Zeit
TTITLE4=Mei, is des peinlich
TTITLE5=Das La-La-La-La-Lied
TTITLE6=So ist's (...da kannst nix machen)
TTITLE7=Aber schee is es scho
TTITLE8=I steh auf Tracht
TTITLE9=Englisch, Mathe, Deutsch
TTITLE10=Schlafen kann i sp‰ter no
TTITLE11=I bin und bleib a S‰ngerin
EXTD=Tyrolis 352 930  ( 2014 )
EXTT0=
EXTT1=
EXTT2=
EXTT3=
EXTT4=
EXTT5=
EXTT6=
EXTT7=
EXTT8=
EXTT9=
EXTT10=
EXTT11=
PLAYORDER=
